# xmcd
#
# Track frame offsets:
# 150
# 13816
# 29117
# 44416
# 57767
# 67593
# 80954
# 92203
# 104467
# 116729
#
# Disc length: 1717 seconds
#
#
# Revision: 0
# Processed by: cddbd v1.5.1PL0 Copyright (c) Steve Scherf et al.
# Submitted via: FreeRIP 2.942 
#
DISCID=8906b30a
DTITLE=Porter Wagoner - Best Of The Best Hall Of Fame 2002
DYEAR=2002
DGENRE=Country
TTITLE0=Carroll County Accident
TTITLE1=Cold Hard Facts Of Life
TTITLE2=Skid Row Joe
TTITLE3=Green Green Grass Of Home
TTITLE4=Ole Slew Foot
TTITLE5=A Satified Mind
TTITLE6=Misery Loves Company
TTITLE7=Sorrow On The Rocks
TTITLE8=I've Enjoyed About As Mush Of This As I Can Stand
TTITLE9=Company's Comin'
EXTD=King Records
EXTT0=
EXTT1=
EXTT2=
EXTT3=
EXTT4=
EXTT5=
EXTT6=
EXTT7=
EXTT8=
EXTT9=
PLAYORDER=
